<?xml version="1.0" encoding="utf-8"?>
<!-- Generator: Adobe Illustrator 24.0.0, SVG Export Plug-In . SVG Version: 6.00 Build 0)  -->
<svg version="1.1" id="Layer_1" xmlns="http://www.w3.org/2000/svg" xmlns:xlink="http://www.w3.org/1999/xlink" x="0px" y="0px"
	 viewBox="0 0 400 400" style="enable-background:new 0 0 400 400;" xml:space="preserve">
<style type="text/css">
	.st0{opacity:0.55;fill:#FFFFFF;}
	.st1{opacity:0.38;fill:#FFFFFF;enable-background:new    ;}
	.st2{opacity:0.25;fill:#FFFFFF;enable-background:new    ;}
</style>
<title>Artboard 1</title>
<path class="st0" d="M145.4,263.1v40.1c0,6.3-1.4,11.1-4.3,14.3c-2.9,3.2-7.1,4.9-11.4,4.7c-4.2,0.2-8.3-1.6-11.1-4.7
	c-2.8-3.2-4.3-7.9-4.3-14.3v-48c0.1-5.9-0.2-11.8-0.8-17.7c-0.3-3.8-1.8-7.4-4.2-10.3c-2.3-2.7-5.9-4-10.8-4
	c-9.9,0-16.4,3.4-19.5,10.2s-4.7,16.5-4.7,29.1v40.7c0,6.3-1.4,11-4.3,14.2c-2.8,3.2-6.9,5-11.2,4.8c-4.3,0.1-8.4-1.6-11.2-4.8
	c-2.9-3.2-4.4-7.9-4.4-14.2v-86.2c0-5.7,1.3-10,3.9-12.9c2.6-2.9,6.4-4.6,10.3-4.4c3.9-0.1,7.6,1.4,10.3,4.1
	c2.8,2.8,4.1,6.6,4.1,11.4v2.9c4.6-5.7,10.3-10.4,16.8-13.8c6.2-3,13-4.5,19.9-4.4c7.6,0,14.1,1.5,19.5,4.5
	c5.7,3.2,10.3,8,13.5,13.7c4.4-5.7,10-10.3,16.3-13.8c6-3,12.6-4.6,19.3-4.5c8.2,0,15.3,1.6,21.3,4.9c5.8,3.1,10.5,8,13.4,13.9
	c2.6,5.4,3.9,14,3.9,25.7v58.9c0,6.3-1.4,11.1-4.3,14.3c-2.9,3.2-7.1,4.9-11.4,4.7c-4.3,0.1-8.4-1.6-11.2-4.8
	c-2.9-3.2-4.4-7.9-4.4-14.2v-50.7c0.1-5.2-0.2-10.4-0.8-15.6c-0.4-3.7-2-7.1-4.5-9.8c-2.4-2.7-6.1-4-11-4c-4,0-8,1.3-11.3,3.5
	c-3.6,2.4-6.5,5.6-8.3,9.5C146.5,241.2,145.4,250.2,145.4,263.1z"/>
<path class="st0" d="M183.6,172.6c-3.9,0.1-7.8-1.3-10.8-3.9c-3-2.6-4.5-6.2-4.5-10.9c-0.1-4,1.6-7.9,4.6-10.5
	c2.9-2.7,6.7-4.2,10.7-4.1c3.8,0,7.5,1.3,10.4,3.8c3,2.5,4.5,6.2,4.5,10.9c0,4.6-1.5,8.3-4.4,10.9
	C191.2,171.2,187.5,172.6,183.6,172.6z"/>
<path class="st0" d="M274.2,216.5v3.6c5.7-7,11.6-12.1,17.7-15.4c6.4-3.3,13.5-5,20.8-4.9c9-0.1,17.9,2.4,25.6,7.2
	c7.8,4.8,14,11.8,18.5,21s6.8,20.1,6.8,32.7c0.1,8.7-1.2,17.3-3.9,25.6c-2.3,7.2-5.9,13.8-10.8,19.5c-4.4,5.2-10,9.3-16.2,12.1
	c-6.3,2.8-13.1,4.3-20,4.2c-8.6,0-15.8-1.7-21.7-5.2c-6.5-4-12.1-9.2-16.7-15.2V347c0,13.3-4.8,19.9-14.5,19.9
	c-5.7,0-9.4-1.7-11.3-5.1c-1.8-3.4-2.8-8.4-2.8-15V216.7c0-5.7,1.3-10,3.8-12.9c2.5-2.8,5.9-4.2,10.3-4.3c3.9-0.1,7.8,1.5,10.4,4.4
	C272.9,206.8,274.2,211,274.2,216.5z M333.3,260.3c0-7.9-1.2-14.8-3.6-20.5c-2.1-5.2-5.6-9.8-10.1-13.1c-4.2-3-9.2-4.6-14.3-4.6
	c-8.3,0-15.3,3.3-21,9.8s-8.6,16.2-8.6,28.9c0,12,2.8,21.3,8.5,28c5.7,6.7,12.7,10,21.1,10c5,0,9.8-1.5,13.9-4.4
	c4.3-2.9,7.7-7.3,10.3-13.1S333.3,268.6,333.3,260.3L333.3,260.3z"/>
<path class="st1" d="M183.7,119.2c-4,0.1-7.8-1.3-10.8-3.9c-3-2.6-4.5-6.4-4.5-11.2c-0.1-4.1,1.6-8,4.6-10.8
	c2.9-2.7,6.7-4.3,10.6-4.2c3.8,0,7.5,1.3,10.4,3.8c3,2.6,4.5,6.3,4.5,11.2c0,4.7-1.5,8.4-4.4,11.1
	C191.4,117.8,187.6,119.3,183.7,119.2z"/>
<path class="st1" d="M144.6,129.8c-4,0.1-7.8-1.3-10.8-3.9c-3-2.6-4.5-6.4-4.5-11.2c-0.1-4.1,1.6-8,4.6-10.8
	c2.9-2.7,6.7-4.3,10.7-4.2c3.8,0,7.5,1.3,10.4,3.8c3,2.6,4.5,6.3,4.5,11.2c0,4.7-1.5,8.4-4.4,11.1
	C152.3,128.4,148.5,129.8,144.6,129.8z"/>
<path class="st1" d="M222.8,129.8c-4,0.1-7.8-1.3-10.8-4c-3-2.6-4.5-6.3-4.5-11.2c-0.1-4.1,1.6-8,4.6-10.8c2.9-2.7,6.7-4.3,10.7-4.2
	c3.8,0,7.5,1.3,10.4,3.8c3,2.6,4.5,6.3,4.5,11.2c0,4.7-1.5,8.4-4.4,11.1C230.4,128.4,226.7,129.9,222.8,129.8z"/>
<path class="st2" d="M183.7,65.2c-4,0.1-7.8-1.3-10.8-3.9c-3-2.6-4.5-6.3-4.5-11.2c-0.1-4.1,1.6-8,4.6-10.8
	c2.9-2.7,6.7-4.3,10.6-4.2c3.8,0,7.5,1.3,10.4,3.8c3,2.6,4.5,6.3,4.5,11.2c0,4.7-1.5,8.4-4.4,11.1C191.4,63.9,187.6,65.3,183.7,65.2
	z"/>
<path class="st2" d="M144,74.8c-4,0.1-7.8-1.3-10.8-3.9c-3-2.6-4.5-6.4-4.5-11.2c-0.1-4.1,1.6-8,4.6-10.8c2.9-2.7,6.7-4.3,10.7-4.2
	c3.8,0,7.5,1.3,10.4,3.8c3,2.6,4.5,6.3,4.5,11.2c0,4.7-1.5,8.4-4.4,11.1C151.6,73.4,147.8,74.9,144,74.8z"/>
<path class="st2" d="M108.1,93.5c-4,0.1-7.8-1.3-10.8-3.9c-3-2.6-4.5-6.4-4.5-11.2c-0.1-4.1,1.6-8,4.6-10.8
	c2.9-2.7,6.7-4.3,10.7-4.2c3.8,0,7.5,1.3,10.4,3.8c3,2.6,4.5,6.3,4.5,11.2c0,4.7-1.5,8.4-4.4,11.1C115.7,92.1,112,93.5,108.1,93.5z"
	/>
<path class="st2" d="M259.7,93.2c-4,0.1-7.8-1.3-10.8-3.9c-3-2.6-4.5-6.3-4.5-11.2c-0.1-4.1,1.6-8,4.6-10.8
	c2.9-2.7,6.7-4.3,10.7-4.2c3.8,0,7.5,1.3,10.4,3.8c3,2.6,4.5,6.3,4.5,11.2c0,4.7-1.5,8.4-4.4,11.1C267.4,91.8,263.6,93.2,259.7,93.2
	z"/>
<path class="st2" d="M223.5,74.8c-4,0.1-7.8-1.3-10.8-3.9c-3-2.6-4.5-6.4-4.5-11.2c-0.1-4.1,1.6-8,4.6-10.8
	c2.9-2.7,6.7-4.3,10.7-4.2c3.8,0,7.5,1.3,10.4,3.8c3,2.6,4.5,6.3,4.5,11.2c0,4.7-1.5,8.4-4.4,11.1C231.1,73.4,227.4,74.9,223.5,74.8
	z"/>
</svg>
